<svg xmlns="http://www.w3.org/2000/svg" viewBox="0 0 18 18" id="edit"><g fill="#999" fill-rule="evenodd"><path d="M8.513 3v1H2.076A.076.076 0 0 0 2 4.075v11.85c0 .041.034.075.075.075h11.85a.074.074 0 0 0 .075-.072V9.521h1v6.407C15 16.52 14.518 17 13.925 17H2.075A1.076 1.076 0 0 1 1 15.925V4.075C1 3.481 1.481 3 2.076 3h6.437z"></path><path fill-rule="nonzero" d="M7.1 10.04l.068 1.312 1.306.067 7.648-7.59-1.42-1.404L7.1 10.04zm7.95-8.676l2.134 2.109a.5.5 0 0 1 .004.707l-8.324 8.26-2.648-.137-.138-2.655 8.267-8.282a.5.5 0 0 1 .705-.002z"></path></g></svg>
