<svg xmlns="http://www.w3.org/2000/svg" viewBox="0 0 15 15" id="cart-remove"><g fill="none" fill-rule="evenodd" transform="translate(1)"><path fill="#979797" d="M7.05 15h-5.5c-.303 0-.55-.26-.55-.583V5.091c0-.322.246-.583.55-.583.304 0 .55.26.55.583v8.743h4.95c1.032 0 2-.426 2.728-1.2A4.18 4.18 0 0 0 10.9 9.735l-.03-7.15c0-.323.245-.585.548-.586h.003c.302 0 .548.26.55.58L12 9.732a5.374 5.374 0 0 1-1.442 3.724C9.622 14.451 8.376 15 7.05 15z"></path><path fill="#979797" d="M12.458 3H.542C.242 3 0 2.776 0 2.5S.243 2 .542 2h11.916c.3 0 .542.224.542.5s-.243.5-.542.5"></path><path fill="#979797" d="M5 2h3V1H5v1zm3.464 1H4.536C4.24 3 4 2.776 4 2.5v-2c0-.276.24-.5.536-.5h3.928C8.76 0 9 .224 9 .5v2c0 .276-.24.5-.536.5z" mask="url(#cart-remove_b)"></path></g></svg>
