<svg xmlns="http://www.w3.org/2000/svg" viewBox="0 0 17 17" id="like"><path fill="#999" d="M15.744 7.319a1.705 1.705 0 0 0-1.382-.79.476.476 0 0 0-.085-.008l-2.837-.003c.216-.612.303-1.227.303-1.911 0-.444-.08-.942-.267-1.333C11.11 2.504 10.427 2 9.636 2a1.655 1.655 0 0 0-1.658 1.792c-.05 1.745-1.438 3.16-3.186 3.284v.01l-2.144.005a.569.569 0 0 0-.643.56L2 14.435a.569.569 0 0 0 .663.558H5.02a.477.477 0 0 0 .171 0l7.953.002v.003c.311 0 .628-.085.91-.26.268-.167.469-.4.602-.66a.543.543 0 0 0 .083-.176l1.239-5.39a.551.551 0 0 0 .017-.192 1.618 1.618 0 0 0-.25-1.001zm-12.627.869l1.651-.004v5.71H3.113l.004-5.706zm11.768.053a1.065 1.065 0 0 0-.002.07l-1.205 5.244-.015.028a.552.552 0 0 1-.2.224l-.006.003a.589.589 0 0 1-.313.087l-7.263-.002V7.986a4.481 4.481 0 0 0 3.21-4.163c0-.047-.001-.095-.006-.142a.55.55 0 0 1 .551-.583.74.74 0 0 1 .432.143c.16.114.3.287.402.501.099.207.16.538.16.865 0 .592-.077 1.085-.24 1.55a1.08 1.08 0 0 0 .143.997c.208.29.546.462.906.462l2.793.003.084.006a.592.592 0 0 1 .49.284c.077.12.086.247.08.332z"></path></svg>