<svg xmlns="http://www.w3.org/2000/svg" viewBox="0 0 9 10" id="red-packet"><defs><linearGradient id="red-packet_a" x1="72.187%" x2="72.187%" y1="0%" y2="100%"><stop offset="0%" stop-color="#FFF"></stop><stop offset="100%" stop-color="#FFF1EE" stop-opacity=".9"></stop></linearGradient></defs><path fill="url(#red-packet_a)" fill-rule="evenodd" d="M35.074 27c.512 0 .926.373.926.833v1.07c-.888.953-2.62 1.582-4.5 1.582s-3.612-.63-4.5-1.582v-1.07c0-.46.415-.833.926-.833h7.148zM27 30.223c1.145.77 2.757 1.233 4.5 1.233 1.743 0 3.355-.464 4.5-1.233v5.943c0 .46-.414.834-.926.834h-7.148c-.511 0-.926-.373-.926-.834v-5.943z" transform="translate(-27 -27)"></path></svg>