<svg xmlns="http://www.w3.org/2000/svg" viewBox="0 0 12 12" id="tip"><g fill="none" fill-rule="evenodd"><circle cx="6" cy="6" r="5.625" stroke="#BBB" stroke-width=".75"></circle><path fill="#BBB" d="M6.11 2.4c.64 0 1.16.17 1.56.53.4.35.6.83.6 1.43 0 .49-.13.9-.38 1.22-.09.11-.37.37-.84.78-.19.16-.33.34-.42.52-.11.2-.16.42-.16.66v.17H5.4v-.17c0-.37.06-.69.2-.95.13-.28.51-.69 1.13-1.24l.17-.19c.18-.23.28-.47.28-.73 0-.35-.1-.62-.29-.82-.2-.2-.49-.3-.85-.3-.45 0-.78.14-.98.43-.18.24-.27.58-.27 1.02H3.74c0-.73.21-1.3.63-1.72.42-.43 1-.64 1.74-.64zm-.18 5.85c.21 0 .39.06.53.2.14.13.21.3.21.51 0 .21-.08.38-.22.52a.75.75 0 0 1-.52.2.717.717 0 0 1-.73-.72c0-.21.07-.38.21-.51.14-.14.32-.2.52-.2z"></path></g></svg>
